<?xml version="1.0" encoding="UTF-8"?>
<svg id="Layer_1" xmlns="http://www.w3.org/2000/svg" version="1.1" viewBox="0 0 852.8 852.8">
  <!-- Generator: Adobe Illustrator 30.0.0, SVG Export Plug-In . SVG Version: 2.1.1 Build 123)  -->
  <defs>
    <style>
      .st0 {
        fill: #fff;
      }
    </style>
  </defs>
  <path class="st0" d="M426.4,42.4C136.7,39.5-51.5,361.5,90.1,611.9c2.9,5.3,3.9,11.5,2.5,17.4,0,0-39.9,170.8-39.9,170.8,0,0,170.8-39.9,170.8-39.9,5.9-1.4,12.1-.4,17.4,2.5,250.4,141.6,572.5-46.7,569.5-336.3,0-212.1-171.9-384-384-384ZM637.6,259.3c13.3-5.1,27.3-3.8,41.2-2.2,1.2.1,2.6.4,3.3,1.3.6.6.8,1.5.9,2.6,2.4,33.3-24.4,72.1-59,53.6,2.6-4.4,29-29.5,36.9-38.9-12.6.6-25.9,9.3-35.9,16.9-2.7,2.3-6.1,6.1-8.8,7.9-2.9,1.8-2.8-2.2-3.2-4.7-1.7-16.5,8.8-30.8,24.5-36.5ZM610.4,195.7c1.2,0,2.2.3,2.8.9,1,.8,1.3,2.3,1.4,3.6,3.1,26.9-7.2,61.7-36,69.2-6.2,1.9-15.5,1.3-19.6-3.7-.3-.5-.1-.8.1-1.2,3.6-4.9,26.4-35.9,34.2-46.6.3-.6-.8-.1-1.8.2-17.3,6.7-33.9,20.7-42.1,37.3-.7,1.3-1.9,2.2-2.9.9-17.1-41.6,26.6-63.1,63.7-60.5ZM572.8,320.9c-7.8,4.1-18.2,11.5-22.7,15-2.3,1.8-2.9-1.1-3.2-3.7-1.2-13.3,10.5-25.5,23.3-27.8,8.2-2,17.4.8,25.5-1,2.2-.7,3.1.7,3.1,2.7.3,15.9-2.8,33.6-16.9,42.5-6.8,4.4-14,5.8-21.3,2.8-1.6-.7-3.6-1.2-4.1-3,.4-7.3,17.5-16.9,22.6-24.7,5.9-8.2-.4-5.7-6.2-2.6ZM482.9,399.9c8.5-3.7,17.1-8.1,26.2-10.4,29.9-7.5,93.4-16.5,100.6-16.9,3.4-.1,7.2-.8,9.9-.5,1.3.4.6,2.8.2,4.2-.1.4-.4.9-.7,1.1-4.5,1.4-45.1,12.8-59,16.9-.6.2-1.2.8-1.2,1.4-.2,1,1.8,1.9,3,2,20.1,4.5,41.4,9.6,57.3,23,.7,1.8-.7,4.9-2,5.9-1,.8-2.6-.1-3.8-.7-14.7-7.6-32.2-13.1-48.5-16.4-45.8-10.5-98.7,1-116.6,48.3-.8,1.7-1.3,2.6-1.9,2.5-9.1-11.3-12.4-26.6-18.9-39.5-2.4-5-5.5-10.4-8.4-14.9-5.4-7.2-6.4-15-6-23.9,3.2-49.4,7.5-45.3-13.5-93.5-.8-1.8-1.7-3.9-1-5.2.7-1.3,2.6-1.3,3.9-.5,4.2,3.6,9,14.1,12.5,20,.9,1.5,1.9,4.1,3.8,4.1,1.4-13.6,1.1-69.6,1.6-77.3,0-2.3,2.8-3.8,4.8-2.7h.1c.7.4.9.7.9,1.3.4,7.4,3.3,66.6,3.7,74.3,0,1.2.9.5,1.5,0,2.8-1.2,15.1-24.1,17.9-18.4,0,1.3-1.3,3.5-2.2,5.5-6.4,13-13.4,29.1-14.7,42.1-1.4,15.3,0,33.9,1.2,48.1.6,6.9,1.1,15.3,3.3,21.6,1.2,4.7,6.1,8.3,10.5,6.9,2-.8,3.3-2.6,4.7-4.1,7.4-8.1,16.3-17.4,23.6-25,30.4-29.8,53-58.2,51.2-103.1,0-4.4-.6-8-1.5-12.3-1.3-8.5-4.1-20.6-5-28.9,36.5,54.2,6.5,116.6-35.8,157.4-1.7,2.2-8.3,10.4-1.6,7.4ZM581.9,472.6c-7.6-13.9-21.4-32.8-27.5-38.3-2.4-2-.4-3.7,2.5-4.2,32.5-6.4,52.3,30.8,50,59.3-.4,7.3-1.7,14.5-2.1,21.8,0,1.1-.1,2.5-1,3.2h-.1c-.8.8-2.4.5-3.6.3-25.8-4.1-52.9-15.3-61.4-42.2-2.4-7.4-2.8-15.5.6-22.7,1.4-2.5,2.3-4.8,4.3-4.2,6.8,3.7,21.5,24.9,29.3,33.8,2.5,2.6,5.8,5.4,8.5,7.7,1.1.9,2.7,1.5,4.1,1,4.1-1.1-.8-9.9-3.6-15.4ZM489.2,307c-3.8,2-7.7,5.3-11,8.2-3.1,2.6-4.9,4.7-7,8-2.8,3.5-9.9,15.6-11.2,4.6-4.2-25,23.1-38.3,45.4-35.1.9.7,1,2,1,3.2,1.1,19.6-8.9,48.5-31.8,43-.2-.2-.2-.4,0-.6,2-3.8,12.8-23.4,16.9-31.2.4-1.1-.9-.6-2.2,0ZM525.7,147.8c1.9-.5,3.6-.2,4.5,1.6,10,23.9,9.1,63.9-24.2,64.5-.6,0-.8-.2-.8-.6,1.7-6.5,12.1-37.1,13.7-43.3-9.9-1.5-22.5,33.5-25.7,37-1.2,1.3-2.9-2.5-3.7-3.6-16.3-27.7,10-48.7,36.3-55.7ZM490,222.5c1.1-.2,2.7-.5,3.4.3.6.6.6,1.7.7,2.6,0,4.2.6,8.4,1,12.6,2.7,17.9-8.7,41.3-28.4,39.4-1.8-.3-3.2-.3-3.2-1.8.8-4.1,9.2-17.9,13.7-27.1,1.7-3.6,3-6.6,2.8-7.9-.2-.7-1-.7-1.6-.5-1.8.5-4.2,2.3-6.7,4.7-7.3,7.2-15.9,20.2-18.7,22.9-.2.2-.4.2-.7,0-13.6-26.6,13.7-41.4,37.7-45.3ZM394.3,170.4c.4-9.8,4.7-18.9,10.4-26.7,3-4,5.7-8.1,9.6-11.2,2.3-1.8,6.5-5.4,8.6-6.9,1.4-1,2.6-.8,4,.4,21.3,17.6,35.8,46.8,23.2,73.7-2.2,4.1-6.7,10.4-11.3,13.2-3,1.7-6.3,1.9-7.1-1.1-1.6-9,.2-29-.9-38.9-.6-6.4-2.1-17.4-5.6-18.5-1.2-.5-2.7.2-3.1,1.4-2.6,7-5.3,43.8-5.3,54.7,0,.8-.1,1.7-1,1.8-18.4-2.3-22.8-26.9-21.7-42ZM399.3,256.6c0,2.7,0,7.4-2.4,8.8-3.3,1.3-14.6-15.9-18.7-20-.9-1-1.7-2-2.9-2.7-1.6-1-4.8-1.7-5.5-1-.4.4-.2,1.3.2,2.6,1.3,4.1,3.4,8.5,5.4,12.4,2,4.5,4.6,7.5,7.7,11.2,1.4,1.9,3.4,3.7,3.7,6-.2,1.9-2.7,2.2-4.4,2.6-14,2.7-24.2-11-27.7-23.1-1-2.6-.6-4-.7-6.8,0-6.4,0-18.6,0-22.1,0-.6.2-1,.8-1.2h.1c21.4-.1,44.7,9.5,44.3,33.3ZM358.6,311.8c5.1,7.7,15.3,22.9,17.5,26.3.3,1-.8,1.1-2.2,1.5-23.3,5.3-33.5-25.4-31.2-45.3.7-1.1,2.3-1.1,3.5-1.1,5.2,0,10.9-.7,15.6,0,16.9,2.1,31.3,19.5,26,36.5-.4,1.1-.7,1.9-1.5,2.2-2.4.2-4.2-4.2-5.7-6.2-1-1.5-1.9-2.7-3.2-3.9-4.1-4.2-13.3-12.7-18.4-13.4-2.8-.2-2.5.4-.4,3.4ZM316.9,151c.7-2.8,2.3-4.2,5.1-3,7.8,3.2,16.5,4.2,23.9,8.4,16.5,9.4,26,34.6,12,49.2-.8.8-1.5,1.3-2.1,1.2h-.1c-.8-.2-1.3-1.5-1.6-2.4-3.5-10.2-11.3-27.7-20.1-33.3-4.3-1.6-.1,13.6,1.6,19.1,2,6.5,7.4,15.9,8.5,21.5-.1,3.3-5.3,2.5-7.9,1.7-26.8-6.8-26.3-40.8-19.4-62.4ZM233,196.3c0-.6.2-1.2.8-1.4h.1c19.2.4,39.2-.1,55.7,12.2,14.3,10.6,20,28.6,12.6,46.1-.8,1.8-1.7,3.9-3.3,2.1-8.8-14.8-21.1-30.3-37.7-35.7-1.6-.6-4.6-.6-4.7,1.3.7,1.7,3.1,4.2,6.4,8.7,8.9,11.7,23.9,31.5,26.6,35.1,1.3,1.9-.6,3.9-2.9,4.8-21,6.3-44.7-14.3-50.1-34.3-1.9-7.4-3.6-13.5-3.4-21,0-4.9,0-14.6,0-17.9ZM270.7,324.7c5.4,5.8,19.2,16.5,22.1,22.1,1,1.9-1.8,3.1-3.5,3.8-25.3,10.1-43.9-22.3-40.9-46.3.6-1.5,2.3-1.5,3.7-1.3,13.3,1.8,26.6-2.4,38.6,6,9,5.8,12.7,16.4,11,27.2h0c-.3.8-.9.5-1.4.2-4-2.5-17.5-11.1-21-13.4-1.6-1-3.4-1.6-5.3-2.4-2.2-.8-4.7-2-5.7-1.8-2,.8,1.3,4.7,2.3,5.8ZM169.6,257.1c20.7-3.2,45.1-4.2,59.9,13.5,6.7,8.2,9.4,20.4,5.9,31.2-1.9,2.7-10.5-8.5-12.7-10-6.6-4.9-26.6-15.5-32.3-16.3-1.8,0-1,4.7.6,5.8,7.7,6.3,30.8,24.9,34.4,32.3.8,1.9-1.8,2.9-3.7,3.7-18,7.2-38-2.2-47.7-18.7-6.6-11.1-7.9-24.4-8.5-37-.2-2.7,1.4-4.2,4.1-4.4ZM121.7,365.2h0c1.4-1.8,5.4-2.9,7.3-5,21.8-24.9,82.1-33.3,86.9,7.9-.2.7-.9.9-2.2.6-3-.5-8.7-1.6-12.1-2.3-2.6-.5-4.7-.7-7.3-.9-7.2-.5-14.4-1.5-21.6-1-3.7.3-9.2.8-12.4,1.3-2.4.1-3.7,2.3-3.2,4.6.3,1.5,1.2,1.9,2.6,2.2,14.4,3.4,37,5.8,47.9,8.2,7.4,1.5,9.7,3.8,4.3,10.3-26.8,28.5-71,3.5-89.3-22.6-.7-.9-1.6-2.4-1-3.4ZM132.4,484.2c-.3-1.8.7-3.6,1.2-5.3,4.4-12.9,12.9-30.7,21.1-40,12.2-13.3,34-23,51.1-17,2.4,1.1,10.9,4.2,7.4,7.7-13.9,11-31.2,20.4-43.8,32.4-1.4,1.4-3.7,3.4-3.6,5.3h0c3.2,5.1,24.4-5.7,30.7-9.5,5.5-3.6,21.7-15.9,26.9-17.2,2-.5,2.1,2.9,2.4,4.8,3.1,26.2-20.2,43.4-44.6,47.1-14.5,2.2-33-.8-46.5-6.1-1.2-.5-2-1.1-2.3-2.2ZM214.5,651c-3.4-1.2-5.5-9.8,0-9.3,31.6,5.3,66.7,1.4,95.1-14.1,6.4-3,46.4-26.5,47.9-21.7h0c-9.8,20.3-33.3,32.7-53.3,40.6-27.7,9.5-63.4,14.5-89.6,4.4ZM362.2,692.8c-4,4.2-9.9,4-13.5,1.4-5.3-3.6-3.5-10,1-13.6l.2-.2c8.7-7.7,20.5,3.7,12.3,12.3ZM430.9,726.3c-12.4,7.2-17.9-20.9-6.1-24.3h.2c9.7,1.2,13.9,19.3,5.9,24.3ZM480.7,724.8h0c-.4.2-1-.1-1.7-.8-3-2.6-6-5.6-8.7-8.5-13.8-15.6-32.3-39.9-40-58.9-2.2-5.4-3.1-11.3-4.4-16.9-.3-1.2-.9-3-1.9-3-3.2.4-6.8,10-8.3,12.6-10.2,18.2-20.6,30.5-28.4,50.6-2.8,6.7-4.1,13.1-6.3,20.6-.9,2.7-1.1,4.5-2.6,6.3-1.3,1.4-4,1.4-4.9,0-.7-1.1-.3-2.6,0-4.7.7-4.9,2.4-12.7,3.6-18,6.9-33.6,28.8-60.3,42.2-91.1,1.6-2.1,6.2-27.4,8.5-23.2,4.4,14.5,5.2,30.1,9.9,44.6,9.3,30.1,27.9,54.7,41.3,82.6.9,2.1,2.9,6.3,1.9,7.9ZM489.4,694.1c-9.1-9.1,2.6-20.2,11.6-12.3,8.5,7.8-2.5,22.3-11.6,12.3ZM588.2,689.1c-1.9,2.4-4.9,3.7-8.4,4.2-51.2,1.2-121.8-52.2-140.1-100.1-2.8-7.6-5.6-16-7.9-23.5-2.1-6.9-4-14.1-5.3-21.3-.5-2.9-2.4-6.1-3.5-1-4.4,24.6-9.9,44.8-23.9,66-29,41.7-84.1,83-134.3,79-2.3-.3-4.8-.7-6.8-2-3.4-2.3-1.2-4.3,2.1-4.8,62.2-13.5,124-57.8,136.7-122.9.8-5.7-.4-7.5-4.7-2.8-18.4,27.9-55.8,41.5-92.4,52.2-36.4,10.8-78.9,7-114-7.6-6.1-3-19.3-8.6-21.7-14.8,0-2.8,7.6-.2,9.7.2,78.6,32.4,213.2,2.9,228.4-93.2,4-25.4-3.2-52.8-23.5-69.7-38-32.6-86.1-21.2-129.4-5.9-6.2,1.7-14.2,8.8-20.1,3.9-1.1-1.1-1.3-2.4-.5-3.5,1.8-2.1,4.9-3.1,7.2-4.7,17.6-11.6,39-15.8,58.2-23.5,0,0,0-.1-.2-.2-14.5-3.3-59.1-13.3-64.8-14.6-.7-.1-.9-.7-.9-1.5,0-1.5-.2-4.7.1-5.9.2-.7.8-.9,1.5-.9,5.7.5,17.8.5,24.3,1.4,6.8.9,16.7,2.6,24.9,4.7,28.8,8.3,59.3,10.7,87.2,21.6,2.5,1,4.7,1.7,2.1-1.3-11.7-13.6-24.8-26-34.5-41.2-9.8-16.3-23.7-41.6-23.4-63.2.6-7.9,9.9-54.4,17.7-55.3h0c.5.7-.2,2.7-.5,3.7-13.8,39.4-5.1,82.9,22.4,113.4,21.6,24.8,49.2,39.9,66,71.6,12.1,22.3,16.3,42.2,17.9,66.9,4.8,91.1,59.4,174.3,152.5,192.4,2.7.6,3.7,2.2,2,4.4ZM264.4,487.1c2.3,4.9,9.6-3.4,12.1-6.1,7.5-8.1,22.3-31.5,29.7-36.7.4-.2.8-.4,1.3-.3,1.3,0,3.1,3,3.6,4.8,8.2,26.9-12,53.1-37.3,61-7.3,2.4-14.9,3.2-22.2,5.7-2,.8-4.2.6-4.9-1.9-11.1-31.2-2.8-77.4,34.8-84.1,4-.8,18.8-1.3,12.8,5.9-8.8,10.5-16.6,21.7-23.2,33.7-2.2,4-5.1,9.5-6.4,13.6-.5,1.7-.7,3.1-.4,4.2ZM616.6,654.5c-41.2,5.3-88.8-7.5-115.8-40.4-1.4-1.9-2.4-3.6-2.4-4.9.8-4.2,17.9,3.3,20.6,5,10,5.4,19.2,12.7,29.7,17.2,22,9.2,51.5,17.4,75.7,10.9,2.6-.9,6.5-2.3,9.4-3.1,2-.5,3.3-.7,3.9.6,2.5,12.4-12.5,13.4-21.1,14.7ZM683,591.3c-47.3,42.6-133.9,28.4-184.8-2-18-10.7-35.2-28.6-35.1-50.8.2-2,1.1-1.8,2.6,0,5.7,6.9,11.6,14,18.2,20,48.3,42.2,134.6,60.5,192.8,30.8,2.2-.9,5.6-2.5,7.1-2.1h.1c1.4.5.6,2.4-.8,4.2ZM713.2,486.1h0c-.5,1-1.5,1.4-2.5,1.7-12.1,3.7-24,5.9-36.7,4.9-26.4-1.7-57.1-24.5-49.2-52.7,1.3-2.9,18.3,10.7,21.4,12.6,9.7,6.6,28.4,18.8,40,14.9.1-.2.1-.4,0-.7-4-4.7-16.6-14.3-23.4-19.7-5.1-3.7-21.7-14.4-26.2-18.1-3.3-2.9,7.3-7,9.7-7.6,31.5-8.9,57.9,21.5,64.4,49.8,1.1,3.9,2,7.8,2.9,11.8.2,1,.3,2.3-.2,3.1ZM659.3,401.6c-10.5-1.9-21.3-8.3-23-19.5h0c0-.8.2-1.1.8-1.2,7.1-1.4,52.6-10.1,60-11.6.6-.2.9-.9-.1-1.9-1.7-1.6-5.2-2.3-7.4-2.6-16.6-2-33.9,1-50.4,2.8-4.5.7-4.3-2.4-2.9-6.1,1.4-4,3.8-7.5,6.8-10.6,23.6-22.2,61-10,80.5,12.1,2.2,2.1,2.6,4.7.5,7-14.4,20.9-38,37.2-64.6,31.6Z"/>
</svg>