<?xml version="1.0" encoding="UTF-8"?>
<svg id="Layer_2" data-name="Layer 2" xmlns="http://www.w3.org/2000/svg" viewBox="0 0 577.71 576.99">
  <g id="Layer_1-2" data-name="Layer 1">
    <g>
      <path d="M493.88,128.6c12.7-4.86,26.12-3.67,39.45-2.07,1.08.12,2.38.39,3.08,1.11l.12.12c.54.59.79,1.45.88,2.46,2.31,31.87-23.35,69.03-56.45,51.26,2.07-3.62,17.81-18.41,27.5-28.88,3.93-4.24,7.11-6.96,7.85-8.32-12.09.6-24.74,8.89-34.33,16.19-2.58,2.2-5.87,5.82-8.46,7.53-2.81,1.74-2.71-2.1-3.07-4.47-1.58-15.75,8.46-29.43,23.42-34.94Z" style="fill: #3b45fd;"/>
      <path d="M467.8,67.74c1.12.08,2.07.32,2.73.86l.13.11c.83.72,1.11,2.14,1.23,3.32,2.99,25.71-6.91,59.08-34.45,66.18-5.89,1.79-14.87,1.26-18.73-3.51-.28-.45-.14-.79.13-1.16,3.45-4.72,25.28-34.32,32.75-44.59.26-.61-.75-.1-1.69.17-13.26,4.84-26.51,15.61-34.93,26.57-2.1,2.72-3.71,6.2-5.38,9.09-.67,1.22-1.8,2.08-2.76.82-16.37-39.84,25.48-60.4,60.99-57.86Z" style="fill: #3b45fd;"/>
      <path d="M431.84,187.5c-7.42,3.94-17.39,10.97-21.75,14.31-2.23,1.73-2.75-1.06-3.07-3.58-1.12-12.75,10.06-24.36,22.26-26.64,7.8-1.86,16.54.72,24.25-.94l.18-.04c2.1-.64,2.95.69,2.95,2.56.28,15.17-2.67,32.16-16.14,40.65-6.48,4.2-13.4,5.54-20.38,2.72-1.49-.63-3.46-1.18-3.92-2.82.34-7,16.75-16.21,21.59-23.68,5.64-7.86-.41-5.49-5.97-2.53Z" style="fill: #3b45fd;"/>
      <path d="M345.78,263.1c8.18-3.55,16.4-7.79,25.04-9.93,28.63-7.17,89.4-15.75,96.22-16.17,3.26-.13,6.92-.81,9.51-.51,1.21.34.55,2.69.17,3.98-.11.42-.38.89-.71,1.04-4.28,1.36-43.16,12.28-56.43,16.16-.55.22-1.16.73-1.18,1.36-.17.99,1.76,1.8,2.86,1.93,19.23,4.27,39.65,9.18,54.84,22.04.69,1.74-.66,4.68-1.95,5.62-.98.74-2.5-.1-3.61-.68-14.1-7.27-30.82-12.55-46.39-15.72-43.82-10.06-94.41.92-111.55,46.26-.73,1.58-1.25,2.53-1.83,2.41-8.66-10.77-11.83-25.5-18.1-37.79-2.25-4.74-5.27-9.97-8.08-14.29-5.19-6.93-6.12-14.32-5.78-22.84.17-14.23,3.33-27.84,2.53-42.2-.64-12.05-5.32-23.11-10.36-35.31-1.75-4.17-3.42-7.99-5.05-11.93-.72-1.75-1.62-3.75-.97-4.93.64-1.25,2.48-1.23,3.7-.45,4.05,3.4,8.57,13.53,11.92,19.12.83,1.44,1.86,3.9,3.67,3.9,1.35-13.04,1.06-66.58,1.56-73.97-.06-2.21,2.65-3.62,4.62-2.57l.11.05c.64.35.83.6.87,1.16.35,7.04,3.14,63.72,3.51,71.12-.04,1.12.86.51,1.44,0,2.63-1.13,14.46-23.09,17.1-17.63.08,1.2-1.22,3.35-2.13,5.29-6.12,12.46-12.87,27.82-14.04,40.26-1.33,14.68-.08,32.47,1.12,46.06.59,6.59,1.09,14.64,3.14,20.68,1.17,4.45,5.79,7.97,10.09,6.64,1.88-.76,3.16-2.45,4.48-3.93,7.05-7.71,15.59-16.66,22.55-23.96,29.08-28.52,50.7-55.64,49.03-98.61-.01-4.18-.62-7.67-1.41-11.73-1.27-8.1-3.91-19.75-4.77-27.64,30.93,46.1,12.11,98.73-21.67,137.4-3.97,4.52-8.65,8.51-12.54,13.23-1.65,2.07-7.91,9.94-1.53,7.09Z" style="fill: #3b45fd;"/>
      <path d="M440.56,332.73c-7.25-13.34-20.48-31.39-26.33-36.69-2.26-1.92-.39-3.5,2.42-4.05,31.1-6.09,50.09,29.46,47.84,56.76-.41,6.99-1.67,13.91-2.05,20.9-.07,1.07-.13,2.35-.91,3.09l-.11.09c-.8.63-2.34.4-3.43.19-24.73-3.9-50.64-14.67-58.76-40.34-2.26-7.13-2.66-14.85.6-21.72,1.3-2.38,2.21-4.64,4.16-4.04,6.47,3.57,20.54,23.81,27.99,32.36,2.35,2.46,5.5,5.16,8.12,7.33,1.1.89,2.59,1.4,3.93.91,3.91-1.07-.76-9.46-3.46-14.78Z" style="fill: #3b45fd;"/>
      <path d="M351.83,174.19c-3.62,1.92-7.33,5.1-10.52,7.82-3,2.47-4.68,4.54-6.75,7.63-2.65,3.36-9.49,14.89-10.7,4.43-4.05-23.94,22.09-36.63,43.4-33.6l.12.1c.71.63.85,1.9.87,2.91,1.02,18.76-8.53,46.42-30.4,41.12-.15-.15-.16-.35-.08-.59,1.49-2.9,8.8-16.15,13.12-24.11,1.48-2.74,2.66-4.82,3.08-5.7.41-1.09-.88-.57-2.14,0Z" style="fill: #3b45fd;"/>
      <path d="M386.79,21.91c1.83-.47,3.42-.22,4.29,1.57,6.56,16.76,9.31,40.83-4.12,54.38l-.15.15c-4.55,4.58-12.57,7.57-18.86,7.21-.53-.07-.79-.24-.81-.54,1.65-6.22,11.58-35.47,13.09-41.4-9.46-1.46-21.58,32.09-24.55,35.39-1.12,1.22-2.78-2.36-3.57-3.48-15.57-26.54,9.59-46.62,34.7-53.29Z" style="fill: #3b45fd;"/>
      <path d="M352.58,93.33c1.01-.21,2.53-.43,3.19.18l.1.09c.59.61.62,1.63.65,2.48-.03,4.02.58,8.07.98,12.07,2.55,17.14-8.37,39.53-27.22,37.72-1.76-.28-3.07-.3-3.09-1.69.74-3.91,8.77-17.09,13.09-25.93,1.67-3.46,2.91-6.29,2.71-7.54-.05-.2-.15-.36-.3-.46-.33-.21-.81-.16-1.23-.05-1.74.44-4.06,2.15-6.4,4.46-7.03,6.86-15.17,19.37-17.94,21.94-.21.15-.42.19-.63.09-13.03-25.46,13.08-39.66,36.09-43.37Z" style="fill: #3b45fd;"/>
      <path d="M261.03,43.54c.4-9.35,4.55-18.04,9.97-25.52,2.9-3.84,5.5-7.7,9.21-10.74,2.19-1.76,6.23-5.12,8.25-6.65,1.34-1,2.5-.75,3.85.42,20.42,16.85,34.24,44.8,22.18,70.57-2.08,3.93-6.38,10-10.8,12.67-2.87,1.66-6.06,1.82-6.76-1.03-1.54-8.57.22-27.7-.85-37.2-.56-6.1-1.98-16.63-5.35-17.74-1.19-.48-2.54.18-2.92,1.38-2.48,6.74-5.04,41.93-5.07,52.33,0,.69-.08,1.51-.8,1.69l-.11.03c-17.6-2.2-21.8-25.71-20.8-40.2Z" style="fill: #3b45fd;"/>
      <path d="M265.86,126.04c-.04,2.6.03,7.1-2.3,8.4-3.13,1.24-13.99-15.26-17.9-19.09-.89-.97-1.65-1.94-2.76-2.63-1.54-.93-4.56-1.65-5.26-.99-.4.38-.15,1.29.22,2.51,1.27,3.91,3.3,8.12,5.14,11.88,1.96,4.3,4.45,7.14,7.41,10.71,1.33,1.81,3.25,3.57,3.56,5.73-.18,1.84-2.61,2.11-4.19,2.45-13.41,2.59-23.17-10.51-26.55-22.1-.96-2.52-.61-3.85-.67-6.46.01-6.12-.02-17.75.02-21.12.03-.55.2-.98.76-1.15l.11-.03c20.52-.08,42.78,9.17,42.41,31.9Z" style="fill: #3b45fd;"/>
      <path d="M226.87,178.86c4.88,7.37,14.66,21.91,16.75,25.21.31.99-.79,1.04-2.15,1.42-22.28,5.1-32.02-24.26-29.84-43.35.69-1.02,2.17-1.02,3.34-1.03,4.99-.01,10.41-.67,14.92-.06l.21.03c16.08,2.17,29.74,18.73,24.7,34.88-.35,1.05-.66,1.8-1.45,2.08-2.34.18-4.04-4.05-5.5-5.9-.98-1.48-1.84-2.55-3.02-3.75-3.9-4-12.71-12.18-17.63-12.78-2.72-.21-2.37.38-.35,3.26Z" style="fill: #3b45fd;"/>
      <path d="M187.01,24.97c.67-2.72,2.19-4,4.93-2.83,2.51,1.01,5.11,1.86,7.74,2.59,5.16,1.45,10.47,2.75,15.16,5.45,15.77,8.95,24.93,33.07,11.44,47.11-.74.74-1.44,1.2-2,1.14l-.12-.02c-.8-.18-1.2-1.41-1.48-2.24-3.39-9.8-10.85-26.47-19.21-31.88-4.08-1.49-.14,12.97,1.57,18.28,1.89,6.19,7.09,15.25,8.14,20.53-.13,3.18-5.1,2.38-7.6,1.63-25.68-6.47-25.2-39.08-18.57-59.75Z" style="fill: #3b45fd;"/>
      <path d="M106.73,68.35c.04-.62.19-1.11.76-1.34l.11-.04c18.42.42,37.49-.08,53.28,11.73,13.67,10.15,19.16,27.38,12.04,44.07-.73,1.68-1.63,3.74-3.16,1.97-8.41-14.14-20.23-28.96-36.06-34.17-1.57-.61-4.44-.58-4.5,1.29.67,1.65,2.96,4.01,6.08,8.35,8.47,11.21,22.83,30.18,25.42,33.62,1.2,1.86-.57,3.77-2.76,4.55-20.11,6.02-42.82-13.67-47.94-32.86-1.78-7.07-3.47-12.96-3.29-20.05.02-4.72-.03-13.99.03-17.13Z" style="fill: #3b45fd;"/>
      <path d="M142.8,191.15c5.12,5.59,18.37,15.83,21.17,21.16.94,1.87-1.69,2.99-3.32,3.66-24.2,9.69-41.97-21.35-39.1-44.26.57-1.4,2.2-1.43,3.58-1.26,12.72,1.68,25.47-2.34,36.95,5.72,8.66,5.56,12.11,15.65,10.5,25.99l-.04.1c-.28.65-.82.33-1.31.04-3.78-2.39-16.74-10.64-20.1-12.78-1.5-1-3.3-1.53-5.1-2.26-2.14-.79-4.53-1.92-5.44-1.67-1.87.75,1.24,4.54,2.22,5.55Z" style="fill: #3b45fd;"/>
      <path d="M46.03,126.45c19.8-3.07,43.17-4.06,57.32,12.92,6.38,7.86,9.04,19.55,5.62,29.85l-.08.1c-1.8,2.2-9.97-8.18-12.11-9.7-6.29-4.66-25.43-14.88-30.91-15.61-1.76.05-.96,4.46.6,5.57,7.32,6.06,29.48,23.84,32.91,30.87.8,1.85-1.73,2.74-3.52,3.52-17.18,6.88-36.33-2.11-45.65-17.85-4.44-7.47-6.37-15.96-7.31-24.51-.39-3.62-.65-7.32-.78-10.93-.21-2.56,1.37-4.03,3.91-4.22Z" style="fill: #3b45fd;"/>
      <path d="M.21,229.87l.08-.12c1.34-1.56,5.16-2.67,6.95-4.65,20.85-23.81,78.6-31.84,83.12,7.56-.21.7-.89.82-2.11.61-2.85-.52-8.32-1.57-11.53-2.17-2.45-.51-4.48-.69-6.99-.84-6.86-.46-13.77-1.41-20.64-.99-3.56.24-8.78.75-11.89,1.21-2.34.13-3.5,2.25-3.06,4.38.25,1.42,1.13,1.8,2.52,2.12,13.82,3.23,35.41,5.52,45.84,7.87,7.07,1.44,9.3,3.66,4.1,9.88-25.66,27.26-67.97,3.35-85.46-21.62-.68-.9-1.51-2.31-.91-3.25Z" style="fill: #3b45fd;"/>
      <path d="M10.45,343.82c-.27-1.77.65-3.42,1.13-5.11,4.23-12.32,12.3-29.38,20.14-38.27,11.63-12.69,32.56-21.97,48.89-16.26,2.33,1.01,10.44,4.04,7.06,7.39-13.33,10.51-29.87,19.53-41.91,30.96-1.34,1.31-3.57,3.25-3.43,5.1l.03.12c3.09,4.73,23.38-5.56,29.36-9.19,5.28-3.46,20.77-15.22,25.74-16.49,1.9-.46,2.05,2.8,2.33,4.6,2.92,25.06-19.29,41.5-42.66,45.06-13.91,2.07-31.6-.76-44.5-5.8-1.14-.5-1.93-1.03-2.2-2.1Z" style="fill: #3b45fd;"/>
      <path d="M89.01,503.41c-3.23-1.12-5.26-9.39,0-8.9,30.22,5.05,63.86,1.34,91-13.46,6.08-2.9,44.35-25.35,45.79-20.75l-.02.1c-9.38,19.33-31.84,31.2-51,38.79-26.51,9.09-60.66,13.91-85.77,4.21Z" style="fill: #3b45fd;"/>
      <path d="M230.35,543.41c-3.81,4.02-9.43,3.83-12.88,1.37-5.06-3.46-3.32-9.56.91-12.98l.2-.17c8.35-7.34,19.63,3.55,11.77,11.77Z" style="fill: #3b45fd;"/>
      <path d="M296.02,575.43c-1.99,1.36-4.67,1.66-6.71.3-6.79-4.62-8-20.58.88-23.59l.2-.02c9.28,1.16,13.29,18.53,5.63,23.32Z" style="fill: #3b45fd;"/>
      <path d="M343.71,574.04l-.07.03c-.34.14-.93-.18-1.66-.76-2.92-2.5-5.78-5.33-8.37-8.12-13.21-14.97-30.87-38.14-38.3-56.4-2.07-5.13-2.98-10.78-4.23-16.21-.24-1.11-.9-2.89-1.79-2.85-.79-.09-1.8.93-2.75,2.29-1.97,2.79-3.75,6.97-5.15,9.81-9.76,17.46-19.68,29.16-27.13,48.45-2.7,6.4-3.95,12.58-6.06,19.72-.87,2.59-1.04,4.3-2.47,5.99-1.21,1.34-3.85,1.39-4.73-.09-.63-1.09-.29-2.53-.02-4.54.72-4.69,2.27-12.14,3.41-17.21,6.62-32.2,27.52-57.7,40.39-87.15,1.55-2.06,5.95-26.24,8.13-22.18,4.26,13.91,4.99,28.77,9.43,42.68,8.92,28.78,26.7,52.33,39.54,79.03.82,1.97,2.77,6.02,1.83,7.51Z" style="fill: #3b45fd;"/>
      <path d="M352.07,544.63c-8.54-8.55,2.17-19.18,10.88-11.94l.19.16c8.16,7.51-2.4,21.34-11.07,11.78Z" style="fill: #3b45fd;"/>
      <path d="M446.56,539.8c-1.82,2.34-4.69,3.56-8,4.05-49.03,1.17-116.59-49.95-134.02-95.74-2.72-7.27-5.36-15.35-7.59-22.53-2.03-6.58-3.79-13.5-5.1-20.35-.45-2.81-2.32-5.85-3.39-.93-4.21,23.56-9.47,42.84-22.82,63.12-27.74,39.92-80.48,79.39-128.51,75.59-2.23-.29-4.61-.71-6.53-1.93-3.25-2.2-1.18-4.12,1.98-4.62,59.48-12.88,118.66-55.27,130.81-117.58.72-5.41-.36-7.21-4.48-2.7-17.64,26.65-53.38,39.69-88.46,49.97-34.81,10.31-75.54,6.67-109.09-7.27-5.85-2.87-18.5-8.28-20.79-14.14.04-2.69,7.28-.19,9.25.21,75.18,31.04,203.98,2.81,218.54-89.21,3.8-24.31-3.04-50.48-22.48-66.71-36.36-31.15-82.42-20.31-123.85-5.67-5.96,1.67-13.58,8.47-19.2,3.7-1.01-1.02-1.26-2.32-.51-3.36,1.75-2,4.65-2.94,6.86-4.46,3.18-1.89,6.32-3.79,9.65-5.45,14.54-7.37,31.15-10.92,46.06-17.05,0-.06-.06-.12-.19-.16-13.9-3.13-56.54-12.75-62.03-13.97-.72-.1-.83-.7-.89-1.44-.07-1.42-.23-4.48.1-5.63.2-.67.79-.91,1.48-.88,5.44.44,17.02.49,23.3,1.33,6.49.89,15.94,2.47,23.78,4.47,27.53,7.91,56.74,10.27,83.48,20.65,2.35.99,4.53,1.66,1.97-1.26-11.16-13.02-23.69-24.91-33.01-39.46-9.39-15.63-22.63-39.81-22.41-60.5.56-7.59,9.47-52.02,16.98-52.88l.05.06c.45.64-.15,2.49-.49,3.51-13.18,37.74-4.92,79.29,21.46,108.47,20.63,23.71,47.09,38.17,63.19,68.49,11.62,21.36,15.6,40.34,17.1,63.99,4.56,87.2,56.8,166.76,145.94,184.06,1.46.36,3.02,1.04,2.67,2.66-.12.53-.44,1.1-.8,1.56Z" style="fill: #3b45fd;"/>
      <path d="M136.73,346.57c2.16,4.69,9.14-3.23,11.6-5.82,7.19-7.78,21.38-30.14,28.39-35.07.39-.22.78-.34,1.2-.28,1.29,0,2.96,2.9,3.47,4.55,7.81,25.74-11.49,50.84-35.66,58.35-6.97,2.29-14.3,3.09-21.24,5.45-1.94.76-3.99.55-4.69-1.78-7.94-24.26-6.28-55.98,15.36-72.56,5.1-4.02,11.43-6.94,17.74-7.85l.21-.03c3.83-.78,17.96-1.29,12.28,5.69-8.37,10.04-15.93,20.78-22.2,32.29-2.12,3.79-4.92,9.1-6.08,13.06-.47,1.61-.69,2.99-.39,4.01Z" style="fill: #3b45fd;"/>
      <path d="M473.75,506.71c-39.43,5.08-84.95-7.17-110.8-38.67-1.38-1.84-2.29-3.49-2.25-4.65.75-4.05,17.13,3.11,19.68,4.77,9.59,5.2,18.4,12.15,28.46,16.45,21.02,8.77,49.24,16.67,72.48,10.43,2.53-.85,6.21-2.25,8.96-2.96,1.82-.5,3.09-.62,3.62.46l.07.14c2.43,11.82-11.98,12.78-20.22,14.04Z" style="fill: #3b45fd;"/>
      <path d="M537.32,446.3c-45.26,40.73-128.08,27.19-176.86-1.87-11.01-6.54-21.36-15.58-27.69-26.86-3.67-6.58-6.08-14.05-5.92-21.77.17-1.91,1.04-1.68,2.44-.01,5.41,6.6,11.11,13.35,17.39,19.11,46.2,40.36,128.76,57.91,184.49,29.46,2.12-.84,5.32-2.39,6.77-2.04l.12.03c1.35.47.6,2.22-.73,3.95Z" style="fill: #3b45fd;"/>
      <path d="M566.14,345.59l-.09.14c-.5.77-1.45,1.23-2.37,1.53-4.37,1.34-8.68,2.45-12.94,3.29-7.29,1.44-14.64,1.96-22.19,1.37-25.3-1.67-54.66-23.42-47.09-50.47,1.22-2.77,17.53,10.27,20.43,12.07,9.28,6.36,27.17,18.03,38.26,14.24.14-.18.13-.39-.01-.66-3.83-4.54-15.85-13.72-22.38-18.86-4.84-3.57-20.73-13.74-25.11-17.33-3.18-2.74,6.96-6.74,9.28-7.29,30.15-8.52,55.37,20.57,61.62,47.69,1.02,3.7,1.93,7.49,2.75,11.29.21.98.29,2.16-.18,2.98Z" style="fill: #3b45fd;"/>
      <path d="M514.57,264.72c-10.01-1.8-20.36-7.92-22.04-18.66v-.12c-.04-.69.2-.9.73-1,6.75-1.34,50.34-9.65,57.37-11.12.59-.2.84-.89-.14-1.85-1.65-1.55-4.96-2.16-7.09-2.52-15.89-1.89-32.39.94-48.24,2.69-4.32.69-4.07-2.27-2.78-5.88,1.33-3.83,3.61-7.2,6.54-10.14,6.3-6.26,14.87-10.12,23.55-10.82,20.6-1.99,39.48,7.16,53.45,22.42,2.12,2,2.46,4.46.5,6.75-13.79,20-36.32,35.6-61.85,30.25Z" style="fill: #3b45fd;"/>
    </g>
  </g>
</svg>